<svg width="100" height="100" viewBox="0 0 100 100" fill="none" xmlns="http://www.w3.org/2000/svg">
<path d="M63.5314 67.1249L70.5314 60.1249C71.4742 59.1938 72.667 58.5564 73.9651 58.2901C75.2632 58.0238 76.6106 58.1401 77.8439 58.6249L86.3751 62.0311C87.6214 62.537 88.69 63.4005 89.4463 64.5127C90.2027 65.6249 90.6128 66.9362 90.6251 68.2811V83.9061C90.6179 84.8211 90.4255 85.7251 90.0597 86.5637C89.6939 87.4024 89.1621 88.1583 88.4964 88.786C87.8307 89.4137 87.0449 89.9003 86.1863 90.2163C85.3276 90.5323 84.4139 90.6713 83.5001 90.6249C23.7189 86.9061 11.6564 36.2811 9.37511 16.9061C9.26922 15.9547 9.36597 14.9916 9.65901 14.0802C9.95206 13.1689 10.4347 12.3299 11.0753 11.6184C11.7159 10.907 12.4999 10.3393 13.3756 9.95258C14.2514 9.56589 15.1991 9.36901 16.1564 9.37488H31.2501C32.597 9.37887 33.9119 9.78572 35.0257 10.5431C36.1395 11.3005 37.0013 12.3738 37.5001 13.6249L40.9064 22.1561C41.4072 23.3845 41.5349 24.7331 41.2737 26.0337C41.0125 27.3342 40.3739 28.5289 39.4376 29.4686L32.4376 36.4686C32.4376 36.4686 36.4689 63.7499 63.5314 67.1249Z" fill="#4179D3"/>
</svg>
