<svg width="100" height="100" viewBox="0 0 100 100" fill="none" xmlns="http://www.w3.org/2000/svg">
<path d="M96.875 25.0001V28.1251C96.875 28.5395 96.7104 28.9369 96.4174 29.2299C96.1243 29.5229 95.7269 29.6876 95.3125 29.6876H90.625V32.0313C90.625 33.3256 89.5756 34.3751 88.2812 34.3751H11.7188C10.4244 34.3751 9.375 33.3256 9.375 32.0313V29.6876H4.6875C4.2731 29.6876 3.87567 29.5229 3.58265 29.2299C3.28962 28.9369 3.125 28.5395 3.125 28.1251V25.0001C3.125 24.6909 3.21669 24.3888 3.38848 24.1318C3.56026 23.8748 3.80441 23.6745 4.09004 23.5563L49.4025 6.3688C49.7851 6.2104 50.2149 6.2104 50.5975 6.3688L95.91 23.5563C96.1956 23.6745 96.4397 23.8748 96.6115 24.1318C96.7833 24.3888 96.875 24.6909 96.875 25.0001ZM92.1875 84.3751H7.8125C5.22363 84.3751 3.125 86.4737 3.125 89.0626V92.1876C3.125 92.602 3.28962 92.9994 3.58265 93.2924C3.87567 93.5854 4.2731 93.7501 4.6875 93.7501H95.3125C95.7269 93.7501 96.1243 93.5854 96.4174 93.2924C96.7104 92.9994 96.875 92.602 96.875 92.1876V89.0626C96.875 86.4737 94.7764 84.3751 92.1875 84.3751ZM18.75 37.5001V75.0001H11.7188C10.4244 75.0001 9.375 76.0495 9.375 77.3438V81.2501H90.625V77.3438C90.625 76.0495 89.5756 75.0001 88.2812 75.0001H81.25V37.5001H68.75V75.0001H56.25V37.5001H43.75V75.0001H31.25V37.5001H18.75Z" fill="#4179D3"/>
</svg>
