<svg width="80" height="80" viewBox="0 0 80 80" fill="none" xmlns="http://www.w3.org/2000/svg">
<g clip-path="url(#clip0_727_42)">
<path d="M79.1501 40.9C79.1501 38.2667 78.9168 35.7667 78.5168 33.3333H40.8501V48.3667H62.4168C61.4501 53.3 58.6168 57.4667 54.4168 60.3V70.3H67.2834C74.8168 63.3333 79.1501 53.0667 79.1501 40.9Z" fill="#4285F4"/>
<path d="M40.8499 80C51.6499 80 60.6832 76.4 67.2832 70.3L54.4166 60.3C50.8166 62.7 46.2499 64.1667 40.8499 64.1667C30.4166 64.1667 21.5832 57.1333 18.4166 47.6333H5.1499V57.9333C11.7166 71 25.2166 80 40.8499 80Z" fill="#34A853"/>
<path d="M18.4168 47.6333C17.5834 45.2333 17.1501 42.6667 17.1501 40C17.1501 37.3333 17.6168 34.7667 18.4168 32.3667V22.0667H5.15009C2.41676 27.4667 0.850098 33.5333 0.850098 40C0.850098 46.4667 2.41676 52.5333 5.15009 57.9333L18.4168 47.6333Z" fill="#FBBC05"/>
<path d="M40.8499 15.8333C46.7499 15.8333 52.0166 17.8667 56.1832 21.8333L67.5832 10.4333C60.6832 3.96667 51.6499 0 40.8499 0C25.2166 0 11.7166 9.00001 5.1499 22.0667L18.4166 32.3667C21.5832 22.8667 30.4166 15.8333 40.8499 15.8333Z" fill="#EA4335"/>
</g>
<defs>
<clipPath id="clip0_727_42">
<rect width="80" height="80" fill="white"/>
</clipPath>
</defs>
</svg>
