<svg width="150" height="150" viewBox="0 0 150 150" fill="none" xmlns="http://www.w3.org/2000/svg">
<path d="M56.25 68.75C61.1945 68.75 66.028 67.2838 70.1392 64.5368C74.2505 61.7897 77.4548 57.8853 79.347 53.3171C81.2392 48.7489 81.7343 43.7223 80.7696 38.8728C79.805 34.0232 77.424 29.5687 73.9277 26.0723C70.4314 22.576 65.9768 20.195 61.1273 19.2304C56.2777 18.2657 51.2511 18.7608 46.6829 20.653C42.1148 22.5452 38.2103 25.7495 35.4633 29.8608C32.7162 33.972 31.25 38.8055 31.25 43.75C31.25 50.3804 33.8839 56.7393 38.5723 61.4277C43.2607 66.1161 49.6196 68.75 56.25 68.75ZM106.25 81.25C109.958 81.25 113.584 80.1503 116.667 78.0901C119.75 76.0298 122.154 73.1014 123.573 69.6753C124.992 66.2492 125.363 62.4792 124.64 58.8421C123.916 55.2049 122.13 51.864 119.508 49.2418C116.886 46.6195 113.545 44.8338 109.908 44.1103C106.271 43.3868 102.501 43.7581 99.0747 45.1773C95.6486 46.5964 92.7202 48.9996 90.6599 52.0831C88.5997 55.1665 87.5 58.7916 87.5 62.5C87.5 67.4728 89.4754 72.242 92.9917 75.7583C96.508 79.2746 101.277 81.25 106.25 81.25ZM131.25 125C132.908 125 134.497 124.342 135.669 123.169C136.842 121.997 137.5 120.408 137.5 118.75C137.495 112.909 135.853 107.186 132.76 102.231C129.667 97.2752 125.247 93.286 120.002 90.7154C114.757 88.1449 108.896 87.0959 103.085 87.6875C97.2737 88.2791 91.7446 90.4876 87.125 94.0625C81.0032 87.9647 73.2128 83.8162 64.7364 82.1402C56.2599 80.4641 47.477 81.3356 39.4952 84.6446C31.5133 87.9537 24.6901 93.5521 19.8859 100.734C15.0817 107.916 12.5117 116.359 12.5 125C12.5 126.658 13.1585 128.247 14.3306 129.419C15.5027 130.592 17.0924 131.25 18.75 131.25H93.75C95.4076 131.25 96.9973 130.592 98.1694 129.419C99.3415 128.247 100 126.658 100 125" fill="white"/>
</svg>
