<svg width="189" height="150" viewBox="0 0 189 150" fill="none" xmlns="http://www.w3.org/2000/svg">
<g clip-path="url(#clip0_324_5473)">
<path d="M95.0906 24.9609L66.6281 47.9297C61.8942 51.7383 60.9827 58.5938 64.5699 63.4863C68.3629 68.7012 75.7432 69.7266 80.83 65.7715L110.028 43.1543C112.086 41.5723 115.026 41.9238 116.643 43.9746C118.261 46.0254 117.878 48.9551 115.82 50.5664L109.675 55.3125L150.545 92.8125V37.5H150.34L149.193 36.7676L127.846 23.1445C123.347 20.2734 118.084 18.75 112.733 18.75C106.323 18.75 100.089 20.9473 95.0906 24.9609ZM101.795 61.4062L86.593 73.1836C77.331 80.3906 63.8936 78.5156 56.9544 69.0234C50.4268 60.0879 52.0734 47.6074 60.6886 40.6641L85.1523 20.9473C81.7415 19.5117 78.0661 18.7793 74.3318 18.7793C68.804 18.75 63.4232 20.3906 58.8068 23.4375L37.6364 37.5V103.125H45.9281L72.8028 127.559C78.5659 132.803 87.4751 132.393 92.7383 126.65C94.3555 124.863 95.4435 122.783 96.0021 120.615L101.001 125.186C106.734 130.43 115.673 130.049 120.936 124.336C122.259 122.9 123.23 121.23 123.847 119.502C129.551 123.311 137.314 122.52 142.107 117.305C147.37 111.592 146.988 102.686 141.254 97.4414L101.795 61.4062ZM28.2273 37.5H0V103.125C0 108.311 4.20469 112.5 9.40909 112.5H18.8182C24.0226 112.5 28.2273 108.311 28.2273 103.125V37.5ZM14.1136 103.125C11.5261 103.125 9.40909 101.016 9.40909 98.4375C9.40909 95.8594 11.5261 93.75 14.1136 93.75C16.7011 93.75 18.8182 95.8594 18.8182 98.4375C18.8182 101.016 16.7011 103.125 14.1136 103.125ZM159.955 37.5V103.125C159.955 108.311 164.159 112.5 169.364 112.5H178.773C183.977 112.5 188.182 108.311 188.182 103.125V37.5H159.955ZM178.773 98.4375C178.773 101.016 176.656 103.125 174.068 103.125C171.481 103.125 169.364 101.016 169.364 98.4375C169.364 95.8594 171.481 93.75 174.068 93.75C176.656 93.75 178.773 95.8594 178.773 98.4375Z" fill="white"/>
</g>
<defs>
<clipPath id="clip0_324_5473">
<rect width="188.182" height="150" fill="white"/>
</clipPath>
</defs>
</svg>
