<svg width="150" height="150" viewBox="0 0 150 150" fill="none" xmlns="http://www.w3.org/2000/svg">
<path d="M112.5 93.75H37.5L12.5 118.75V18.75C12.5 17.0924 13.1585 15.5027 14.3306 14.3306C15.5027 13.1585 17.0924 12.5 18.75 12.5H112.5C114.158 12.5 115.747 13.1585 116.919 14.3306C118.092 15.5027 118.75 17.0924 118.75 18.75V87.5C118.75 89.1576 118.092 90.7473 116.919 91.9194C115.747 93.0915 114.158 93.75 112.5 93.75ZM143.75 56.25V143.75L118.75 118.75H50C48.3424 118.75 46.7527 118.092 45.5806 116.919C44.4085 115.747 43.75 114.158 43.75 112.5V106.25H131.25V50H137.5C139.158 50 140.747 50.6585 141.919 51.8306C143.092 53.0027 143.75 54.5924 143.75 56.25ZM51.1875 25C45.75 25 41.375 26.25 38 28.6875C34.75 31.25 33.125 34.8125 33.1875 39.75L33.25 39.9375H45.3125C45.375 38.0625 45.9375 36.625 47.0625 35.625C48.2198 34.6653 49.6844 34.1549 51.1875 34.1875C53.125 34.1875 54.75 34.8125 55.875 35.9375C57 37.125 57.5 38.75 57.5 40.625C57.5 42.625 57.0625 44.3125 56.0625 45.75C55.1875 47.1875 53.875 48.4375 52.25 49.4375C49.0625 51.5625 46.875 53.4375 45.6875 55.125C44.4375 56.75 43.75 59.375 43.75 62.5H56.25C56.25 60.5625 56.5 59 57.0625 57.875C57.625 56.75 58.6875 55.625 60.25 54.625C63.0625 53.125 65.375 51.3125 67.1875 48.8125C69 46.3125 69.9375 43.75 69.9375 40.625C69.9375 35.875 68.25 32.0625 64.875 29.25C61.5625 26.4375 57 25 51.1875 25ZM43.75 68.75V81.25H56.25V68.75H43.75ZM81.25 81.25H93.75V68.75H81.25V81.25ZM81.25 25V62.5H93.75V25H81.25Z" fill="white"/>
</svg>
