<svg width="1440" height="1024" viewBox="0 0 1440 1024" fill="none" xmlns="http://www.w3.org/2000/svg">
<g clip-path="url(#clip0_321_7)">
<path d="M1739.87 275.991C1778.13 394.994 1785.12 519.127 1781.21 648.337C1776.81 778.201 1762 912.49 1682.18 984.052C1602.85 1054.96 1458.52 1063.15 1335.92 1096.69C1213.97 1130.72 1113.92 1191.26 1020.71 1182.69C926.352 1174.3 839.969 1096.63 750.507 1025.82C661.045 955.012 569.158 891.539 494.632 799.347C420.758 707.642 363.759 587.871 383.205 481.431C402.652 374.991 498.378 280.742 579.917 180.989C661.455 81.2358 729.292 -24.6742 824.043 -53.5875C918.306 -81.8479 1038.83 -33.5989 1167.24 -23.1686C1295 -13.2255 1431.14 -41.7541 1532.75 0.514182C1634.36 42.7825 1702.75 156.822 1739.87 275.991Z" fill="#6AA3FF"/>
</g>
<rect x="-26" y="1004" width="1506" height="40" fill="#6AA3FF"/>
<defs>
<clipPath id="clip0_321_7">
<rect width="1629.26" height="1629.26" fill="white" transform="translate(929.276 -578.802) rotate(36.7258)"/>
</clipPath>
</defs>
</svg>
