<svg width="60" height="60" viewBox="0 0 60 60" fill="none" xmlns="http://www.w3.org/2000/svg">
<g clip-path="url(#clip0_315_263)">
<path d="M8.34314 3.01529e-05C5.73202 3.0267e-05 3.66568 0.744407 2.20271 2.21197C-3.66679 8.10341 2.57443 23.5932 16.4162 37.4817C16.9193 37.9864 17.4556 38.4477 18.0051 38.8912C17.9449 39.0368 17.8911 39.2043 17.8463 39.397C16.9115 43.3969 19.0923 56.2345 34.0228 59.9716C34.4055 60.0678 34.8064 59.914 35.0271 59.5871C35.1351 59.4287 35.1882 59.2456 35.1882 59.0625C35.1882 58.8694 35.1287 58.6762 35.0097 58.5123C31.3302 53.4399 29.8502 49.3706 30.395 45.8183C30.8395 46.0634 31.273 46.3122 31.6873 46.5692C32.0581 46.7991 32.5378 46.7432 32.8454 46.4347L34.3116 44.9636L37.055 47.7173C37.2308 47.894 37.4697 47.9929 37.7188 47.9929C37.9678 47.9929 38.2067 47.894 38.3825 47.7173L47.567 38.5025C47.7493 38.3194 47.8408 38.0805 47.8408 37.8406C47.8408 37.6007 47.7493 37.3617 47.567 37.1786L44.8186 34.4214L46.289 32.9462C46.4693 32.7649 46.5628 32.5259 46.5628 32.2842C46.5628 32.1149 46.5169 31.9446 46.4235 31.7926C46.1846 31.4051 45.9525 31.003 45.7241 30.5892C49.294 29.9789 53.3892 31.4571 58.5094 35.1956C58.8281 35.4281 59.2583 35.4364 59.5852 35.2167C59.8488 35.04 60 34.7461 60 34.4385C60 34.3634 59.9908 34.2875 59.9725 34.2124C56.2563 19.2682 43.4637 17.06 39.4738 17.981C39.2303 18.0373 39.0386 18.111 38.8686 18.1909C38.3978 17.5951 37.906 17.0146 37.3653 16.4722C27.3925 6.4655 15.9997 2.98182e-05 8.34314 3.01529e-05ZM28.6395 44.946C27.8686 48.6036 28.9407 52.6227 31.9793 57.3954C25.4654 55.048 22.3882 50.7724 20.9389 47.4179C19.8531 44.903 19.5492 42.6142 19.5492 41.1493C19.5492 40.7565 19.5711 40.4243 19.6051 40.1615L28.6395 44.946ZM45.5794 37.8406L37.7188 45.727L35.6359 43.6359L42.4256 36.8226L43.4948 35.7495L45.5794 37.8406ZM47.4123 21.0627C50.7714 22.5129 55.0515 25.6018 57.398 32.1597C52.6455 29.1165 48.6428 28.0408 44.9954 28.8126L40.2236 19.7434C41.4559 19.5805 44.2538 19.6994 47.4123 21.0627ZM42.0611 27.4787C42.8549 29.1275 43.6093 30.6977 44.446 32.1387L32.036 44.5908C30.8846 43.9183 29.6341 43.2967 28.3424 42.6671L21.1545 38.8601C19.9211 38.0633 18.7632 37.1805 17.7437 36.1579C5.08018 23.4522 -1.42832 8.51534 3.53021 3.53581C4.62886 2.4335 6.24839 1.87503 8.34314 1.87503C15.4165 1.87503 26.5466 8.27365 36.0378 17.796C38.6809 20.4483 40.3994 24.0225 42.0611 27.4787Z" fill="#6AA3FF"/>
<path d="M12.0501 19.9457C13.113 21.0141 14.5275 21.6028 16.0326 21.6028C17.5387 21.6028 18.9532 21.0141 20.0161 19.9457C21.112 18.8443 21.6604 17.3978 21.6604 15.9513C21.6604 14.5047 21.112 13.0582 20.0161 11.9577C18.9532 10.8893 17.5387 10.3015 16.0326 10.3015C14.5275 10.3015 13.113 10.8893 12.0501 11.9577C9.8583 14.1586 9.8583 17.743 12.0501 19.9457ZM18.6867 13.2797C20.1534 14.7537 20.1534 17.1497 18.6867 18.6237C17.9781 19.335 17.036 19.7278 16.0326 19.7278C15.0301 19.7278 14.088 19.335 13.3794 18.6237C12.6461 17.8867 12.2799 16.919 12.2799 15.9513C12.2799 14.9835 12.6461 14.0168 13.3794 13.2797C14.088 12.5684 15.0301 12.1765 16.0326 12.1765C17.036 12.1765 17.9781 12.5684 18.6867 13.2797Z" fill="#6AA3FF"/>
<path d="M44.2006 44.5643C43.8335 44.9296 43.8335 45.5228 44.1988 45.8899L53.5381 55.2603C53.9034 55.6266 54.4966 55.6284 54.8637 55.2622C55.0478 55.0791 55.1394 54.8392 55.1394 54.5985C55.1394 54.3595 55.0478 54.1196 54.8656 53.9365L45.5263 44.5661C45.161 44.1999 44.5677 44.198 44.2006 44.5643Z" fill="#6AA3FF"/>
<path d="M48.7251 54.6332C48.7251 54.3943 48.6335 54.1545 48.4513 53.9713L42.3009 47.8006C41.9355 47.4345 41.3423 47.4335 40.9751 47.7989C40.608 48.1641 40.6071 48.7574 40.9733 49.1245L47.1238 55.2952C47.4891 55.6614 48.0824 55.6623 48.4496 55.297C48.6335 55.1139 48.7251 54.874 48.7251 54.6332Z" fill="#6AA3FF"/>
<path d="M47.4222 42.6545L53.5728 48.8251C53.9381 49.1913 54.5314 49.1923 54.8985 48.8269C55.0825 48.6438 55.1741 48.404 55.1741 48.1632C55.1741 47.9243 55.0825 47.6844 54.9003 47.5013L48.7498 41.3306C48.3845 40.9644 47.7912 40.9634 47.4241 41.3288C47.057 41.694 47.0561 42.2874 47.4222 42.6545Z" fill="#6AA3FF"/>
</g>
<defs>
<clipPath id="clip0_315_263">
<rect width="60" height="60" fill="white" transform="translate(0 60) rotate(-90)"/>
</clipPath>
</defs>
</svg>
